<svg xmlns="http://www.w3.org/2000/svg" viewBox="0 0 32 32" id="Popcorn--Streamline-Twemoji" height="32" width="32">
  <desc>
    Popcorn Streamline Emoji: https://streamlinehq.com
  </desc>
  <path fill="#e1e8ed" d="M27.823111111111107 9.777777777777777H4.149333333333333c-1.472888888888889 0 -2.6666666666666665 1.1937777777777776 -2.6666666666666665 2.6666666666666665s1.1937777777777776 2.6666666666666665 2.6666666666666665 2.6666666666666665c0.16177777777777777 0 0.3173333333333333 -0.020444444444444442 0.4711111111111111 -0.04711111111111111L4.606222222222223 15.11111111111111l0.5662222222222222 12.447999999999999C5.2604444444444445 29.512888888888885 6.933333333333333 31.11111111111111 8.88888888888889 31.11111111111111h14.222222222222221c1.9555555555555557 0 3.628444444444444 -1.5982222222222222 3.7173333333333334 -3.5519999999999996L27.39377777777778 15.11111111111111l-0.013333333333333332 -0.044444444444444446c0.14488888888888887 0.023999999999999997 0.2906666666666667 0.044444444444444446 0.44266666666666665 0.044444444444444446 1.472888888888889 0 2.6666666666666665 -1.1937777777777776 2.6666666666666665 -2.6666666666666665s-1.1946666666666668 -2.6666666666666665 -2.6666666666666665 -2.6666666666666665z" stroke-width="0.8889"></path>
  <path d="M25.482666666666663 15.11111111111111v15.101333333333333c0.7671111111111111 -0.6524444444444444 1.2835555555555553 -1.5964444444444443 1.3262222222222222 -2.6542222222222223L27.41333333333333 15.11111111111111h-1.9306666666666668zm-5.333333333333333 0h2.6666666666666665v16h-2.6666666666666665zm-5.333333333333333 16V15.11111111111111h2.6666666666666665v16zm-5.333333333333333 -16h2.6666666666666665v16h-2.6666666666666665zM4.586666666666667 15.11111111111111l0.6044444444444445 12.447111111111111c0.047999999999999994 1.1928888888888889 0.6897777777777777 2.247111111111111 1.6248888888888888 2.892444444444444V15.11111111111111H4.586666666666667z" fill="#da2f47" stroke-width="0.8889"></path>
  <path opacity=".6" fill="#99aab5" d="m4.586666666666667 15.11111111111111 0.08622222222222221 1.7777777777777777h22.653333333333332l0.08711111111111111 -1.7777777777777777z" stroke-width="0.8889"></path>
  <path fill="#ffd983" d="M27.49244444444444 9.84c0.03822222222222222 -0.16355555555555554 0.0631111111111111 -0.33155555555555555 0.0631111111111111 -0.5066666666666666 0 -0.5991111111111111 -0.24 -1.1413333333333333 -0.6257777777777777 -1.5404444444444445 0.37511111111111106 -0.23644444444444446 0.6257777777777777 -0.6506666666666666 0.6257777777777777 -1.126222222222222 0 -0.7368888888888888 -0.5973333333333334 -1.3333333333333333 -1.3333333333333333 -1.3333333333333333 -0.1751111111111111 0 -0.3422222222222222 0.035555555555555556 -0.496 0.09777777777777777 -0.12355555555555556 -0.45599999999999996 -0.4791111111111111 -0.8115555555555556 -0.9351111111111111 -0.9351111111111111 0.06222222222222223 -0.15377777777777776 0.09777777777777777 -0.31999999999999995 0.09777777777777777 -0.496 0 -0.7368888888888888 -0.5973333333333334 -1.3333333333333333 -1.3333333333333333 -1.3333333333333333 -0.16977777777777778 0 -0.33066666666666666 0.034666666666666665 -0.48 0.09244444444444444C22.905777777777775 1.7004444444444444 21.995555555555555 0.8888888888888888 20.88888888888889 0.8888888888888888 19.66133333333333 0.8888888888888888 18.666666666666664 1.8835555555555556 18.666666666666664 3.1111111111111107c0 0.16622222222222222 0.021333333333333333 0.3271111111111111 0.055999999999999994 0.48355555555555557 -0.5688888888888889 0.10044444444444445 -1.0577777777777777 0.41688888888888886 -1.3893333333333333 0.8613333333333333C16.928 3.912888888888889 16.28622222222222 3.5555555555555554 15.555555555555555 3.5555555555555554 14.328 3.5555555555555554 13.333333333333332 4.550222222222222 13.333333333333332 5.777777777777778l0.0008888888888888888 0.010666666666666666c-0.2702222222222222 -0.20444444444444443 -0.584 -0.3511111111111111 -0.9306666666666665 -0.4142222222222222C12.213333333333333 4.339555555555555 11.31111111111111 3.5555555555555554 10.222222222222221 3.5555555555555554c-1.0915555555555554 0 -1.9955555555555555 0.7884444444444444 -2.1822222222222223 1.8266666666666667C7.880888888888888 5.357333333333333 7.721777777777777 5.333333333333333 7.555555555555555 5.333333333333333 5.8373333333333335 5.333333333333333 4.444444444444445 6.726222222222222 4.444444444444445 8.444444444444445c0 0.48444444444444446 0.12 0.9368888888888889 0.3173333333333333 1.3457777777777777C4.086222222222222 9.85511111111111 3.5555555555555554 10.417777777777777 3.5555555555555554 11.11111111111111c0 0.7368888888888888 0.5973333333333334 1.3333333333333333 1.3333333333333333 1.3333333333333333h22.22222222222222c0.7359999999999999 0 1.3333333333333333 -0.5964444444444444 1.3333333333333333 -1.3333333333333333 0 -0.6026666666666667 -0.4026666666666667 -1.1066666666666667 -0.952 -1.271111111111111z" stroke-width="0.8889"></path>
  <g fill="#ffac33">
    <path d="M24 7.111111111111111a0.8888888888888888 0.8888888888888888 0 1 0 1.7777777777777777 0 0.8888888888888888 0.8888888888888888 0 1 0 -1.7777777777777777 0" stroke-width="0.8889"></path>
    <path d="M20.444444444444443 4.888888888888888a1.3333333333333333 1.3333333333333333 0 1 0 2.6666666666666665 0 1.3333333333333333 1.3333333333333333 0 1 0 -2.6666666666666665 0" stroke-width="0.8889"></path>
    <path d="M9.777777777777777 6.222222222222221a0.8888888888888888 0.8888888888888888 0 1 0 1.7777777777777777 0 0.8888888888888888 0.8888888888888888 0 1 0 -1.7777777777777777 0" stroke-width="0.8889"></path>
    <path d="M27.555555555555554 11.11111111111111c0 -0.7359999999999999 -0.5973333333333334 -1.3333333333333333 -1.3333333333333333 -1.3333333333333333 -0.5848888888888889 0 -1.0773333333333333 0.37955555555555553 -1.2568888888888887 0.9039999999999999 -0.025777777777777778 -0.0017777777777777776 -0.048888888888888885 -0.015111111111111112 -0.07644444444444444 -0.015111111111111112 -0.4906666666666667 0 -0.8888888888888888 0.3982222222222222 -0.8888888888888888 0.8888888888888888h3.4737777777777774c0.049777777777777775 -0.13955555555555554 0.08177777777777777 -0.288 0.08177777777777777 -0.4444444444444444zM8.444444444444445 10.666666666666666c0.176 0 0.3422222222222222 0.035555555555555556 0.496 0.09777777777777777 0.15288888888888888 -0.5671111111111111 0.6666666666666666 -0.9866666666666667 1.2817777777777777 -0.9866666666666667 0.7359999999999999 0 1.3333333333333333 0.5964444444444444 1.3333333333333333 1.3333333333333333 0 0.1564444444444444 -0.031999999999999994 0.3048888888888889 -0.08177777777777777 0.4444444444444444h3.7191111111111113c-0.049777777777777775 -0.13955555555555554 -0.08177777777777777 -0.288 -0.08177777777777777 -0.4444444444444444 0 -0.7368888888888888 0.5973333333333334 -1.3333333333333333 1.3333333333333333 -1.3333333333333333 0.21066666666666664 0 0.408 0.05333333333333333 0.5848888888888889 0.14044444444444443 -0.08711111111111111 -0.1768888888888889 -0.14044444444444443 -0.3742222222222222 -0.14044444444444443 -0.5848888888888889 0 -0.7368888888888888 0.5973333333333334 -1.3333333333333333 1.3333333333333333 -1.3333333333333333s1.3333333333333333 0.5964444444444444 1.3333333333333333 1.3333333333333333c0 0.176 -0.035555555555555556 0.3422222222222222 -0.09777777777777777 0.496 0.5671111111111111 0.15288888888888888 0.9866666666666667 0.6657777777777777 0.9866666666666667 1.2817777777777777 0 0.1564444444444444 -0.031999999999999994 0.3048888888888889 -0.08177777777777777 0.4444444444444444h2.6382222222222222l-0.5031111111111111 -0.4444444444444444c0.3733333333333333 -0.3262222222222222 0.6133333333333333 -0.7991111111111111 0.6133333333333333 -1.3333333333333333 0 -0.9813333333333334 -0.7964444444444444 -1.7777777777777777 -1.7777777777777777 -1.7777777777777777 -0.33599999999999997 0 -0.6471111111111111 0.09866666666666667 -0.9155555555555556 0.2613333333333333 0.013333333333333332 -0.08622222222222221 0.026666666666666665 -0.17155555555555554 0.026666666666666665 -0.2613333333333333 0 -0.9813333333333334 -0.7964444444444444 -1.7777777777777777 -1.7777777777777777 -1.7777777777777777 -0.7182222222222222 0 -1.334222222222222 0.4284444444444444 -1.6142222222222222 1.0417777777777777C16.869333333333334 7.169777777777778 16.66488888888889 7.111111111111111 16.444444444444443 7.111111111111111c-0.7359999999999999 0 -1.3333333333333333 0.5973333333333334 -1.3333333333333333 1.3333333333333333 0 0.176 0.035555555555555556 0.3422222222222222 0.09777777777777777 0.496 -0.5671111111111111 0.15377777777777776 -0.9866666666666667 0.6666666666666666 -0.9866666666666667 1.2817777777777777 0 0.176 0.035555555555555556 0.3422222222222222 0.09777777777777777 0.496 -0.20444444444444443 0.05511111111111111 -0.3893333333333333 0.15733333333333333 -0.5422222222222222 0.2951111111111111 -0.23644444444444446 -0.21333333333333332 -0.5457777777777777 -0.3466666666666667 -0.8888888888888888 -0.3466666666666667 -0.21066666666666664 0 -0.408 0.05333333333333333 -0.5857777777777777 0.14133333333333334 0.088 -0.17777777777777778 0.14133333333333334 -0.37511111111111106 0.14133333333333334 -0.5857777777777777 0 -0.7359999999999999 -0.5973333333333334 -1.3333333333333333 -1.3333333333333333 -1.3333333333333333 -0.176 0 -0.3422222222222222 0.035555555555555556 -0.496 0.09777777777777777C10.462222222222222 8.419555555555554 9.948444444444444 8 9.333333333333332 8 8.597333333333333 8 8 8.597333333333333 8 9.333333333333332c0 0.176 0.035555555555555556 0.3422222222222222 0.09777777777777777 0.496 -0.20444444444444443 0.05511111111111111 -0.3893333333333333 0.15733333333333333 -0.5422222222222222 0.2951111111111111 -0.23644444444444446 -0.21333333333333332 -0.5457777777777777 -0.3466666666666667 -0.8888888888888888 -0.3466666666666667 -0.7359999999999999 0 -1.3333333333333333 0.5973333333333334 -1.3333333333333333 1.3333333333333333 0 0.1564444444444444 0.031999999999999994 0.3048888888888889 0.08177777777777777 0.4444444444444444h1.7777777777777777c0.18399999999999997 -0.5164444444444444 0.6719999999999999 -0.8888888888888888 1.2515555555555553 -0.8888888888888888z" stroke-width="0.8889"></path>
  </g>
  <path fill="#ffffff" d="M3.5555555555555554 11.555555555555555v0.8888888888888888c0 0.4906666666666667 0.3982222222222222 0.8888888888888888 0.8888888888888888 0.8888888888888888h23.11111111111111c0.4915555555555556 0 0.8888888888888888 -0.3982222222222222 0.8888888888888888 -0.8888888888888888v-0.8888888888888888H3.5555555555555554z" stroke-width="0.8889"></path>
</svg>